# xmcd
#
# Track frame offsets:
#	150
#	25695
#	61884
#	91474
#	114677
#	150228
#	193443
#	207492
#	257432
#	289270
#	319007
#	343992
#
# Disc length: 4796 seconds
#
# Revision: 0
# Processed by: cddbd v1.5.1PL2 Copyright (c) Steve Scherf et al.
# Submitted via: EasyCDDAExtractor 8.0.2.1
#
DISCID=b012ba0c
DTITLE=Black Sabbath - Hammersmith Odeon London 10-06-78
DYEAR=1978
DGENRE=Hard Rock
TTITLE0=Supertzar - Symptom Of The Universe
TTITLE1=War Pigs
TTITLE2=Snowblind
TTITLE3=Never Say Die
TTITLE4=Black Sabbath
TTITLE5=Dirty Women - Bill Ward's Drum Solo
TTITLE6=Rock 'N' Roll Doctor
TTITLE7=Guitar Solo - Jam - Electric Funeral
TTITLE8=Iron Man
TTITLE9=Fairies Wear Boots
TTITLE10=Children Of The Grave
TTITLE11=Paranoid
EXTD=
EXTT0=
EXTT1=
EXTT2=
EXTT3=
EXTT4=
EXTT5=
EXTT6=
EXTT7=
EXTT8=
EXTT9=
EXTT10=
EXTT11=
PLAYORDER=
